<?xml version="1.0" encoding="UTF-8"?>
<!--Generator: Apple Native CoreSVG 341-->
<!DOCTYPE svg
PUBLIC "-//W3C//DTD SVG 1.1//EN"
       "http://www.w3.org/Graphics/SVG/1.1/DTD/svg11.dtd">
<svg version="1.1" xmlns="http://www.w3.org/2000/svg" xmlns:xlink="http://www.w3.org/1999/xlink" viewBox="0 0 811.523 1012.21">
 <g>
  <rect height="1012.21" opacity="0" width="811.523" x="0" y="0"/>
  <path d="M405.762 1012.21C413.574 1012.21 426.27 1009.28 438.477 1002.44C716.309 846.68 811.523 780.762 811.523 602.539L811.523 229.004C811.523 177.734 789.551 161.621 748.047 144.043C690.43 120.117 504.395 53.2227 446.777 33.2031C433.594 28.8086 419.434 25.8789 405.762 25.8789C392.09 25.8789 377.93 29.7852 365.234 33.2031C307.617 49.8047 121.094 120.605 63.4766 144.043C22.4609 161.133 0 177.734 0 229.004L0 602.539C0 780.762 95.7031 846.191 373.047 1002.44C385.742 1009.28 397.949 1012.21 405.762 1012.21ZM405.762 923.828C397.949 923.828 390.137 920.898 375.488 912.109C149.902 775.391 77.6367 735.352 77.6367 584.473L77.6367 244.141C77.6367 227.539 80.5664 221.191 94.2383 215.82C168.457 186.523 312.5 138.184 386.23 108.887C394.043 105.469 400.391 104.492 405.762 104.492C411.133 104.492 417.48 105.957 425.293 108.887C499.023 138.184 642.09 189.941 717.773 215.82C730.957 220.703 733.887 227.539 733.887 244.141L733.887 584.473C733.887 735.352 661.621 774.902 436.035 912.109C421.875 920.898 413.574 923.828 405.762 923.828Z" fill="white" fill-opacity="0.85"/>
  <path d="M229.492 687.988C229.492 724.609 246.094 741.699 279.785 741.699L532.715 741.699C566.406 741.699 582.52 724.609 582.52 687.988L582.52 493.652C582.52 459.473 568.359 442.383 539.551 440.43L539.551 382.812C539.551 292.969 485.84 232.91 406.25 232.91C326.66 232.91 272.949 292.969 272.949 382.812L272.949 440.43C244.141 442.383 229.492 459.473 229.492 493.652ZM323.73 439.941L323.73 377.441C323.73 319.824 356.934 282.227 406.25 282.227C455.566 282.227 488.77 319.824 488.77 377.441L488.77 439.941Z" fill="white" fill-opacity="0.85"/>
 </g>
</svg>
