<?xml version="1.0" encoding="UTF-8"?>
<!--Generator: Apple Native CoreSVG 341-->
<!DOCTYPE svg
PUBLIC "-//W3C//DTD SVG 1.1//EN"
       "http://www.w3.org/Graphics/SVG/1.1/DTD/svg11.dtd">
<svg version="1.1" xmlns="http://www.w3.org/2000/svg" xmlns:xlink="http://www.w3.org/1999/xlink" viewBox="0 0 798.828 985.84">
 <g>
  <rect height="985.84" opacity="0" width="798.828" x="0" y="0"/>
  <path d="M439.941 21.9727C496.582 41.5039 679.199 107.91 736.328 131.348C777.344 148.438 798.828 164.551 798.828 214.844L798.828 583.008C798.828 758.301 709.473 831.055 431.641 976.562C419.434 982.91 407.227 985.84 399.414 985.84C391.602 985.84 379.883 983.398 367.188 976.562C94.2383 822.754 0 758.301 0 583.008L0 214.844C0 164.551 21.9727 147.949 62.5 131.348C119.629 108.398 302.246 40.5273 359.375 21.9727C372.07 18.0664 385.742 15.1367 399.414 15.1367C413.086 15.1367 426.758 17.5781 439.941 21.9727ZM262.207 367.188L262.207 426.27C232.91 428.223 218.262 445.801 218.262 481.445L218.262 681.641C218.262 719.238 234.863 736.816 269.531 736.816L530.273 736.816C564.941 736.816 581.543 719.238 581.543 681.641L581.543 481.445C581.543 445.801 566.895 428.223 537.598 426.27L537.598 367.188C537.598 274.414 481.934 211.914 399.902 211.914C317.871 211.914 262.207 274.414 262.207 367.188ZM484.863 361.328L484.863 425.781L314.941 425.781L314.941 361.328C314.941 302.246 349.121 263.184 399.902 263.184C450.684 263.184 484.863 302.246 484.863 361.328Z" fill="black" fill-opacity="0.85"/>
 </g>
</svg>
